<svg width="298" height="16" viewBox="0 0 298 16" fill="none" xmlns="http://www.w3.org/2000/svg">
<path d="M25.42 14.632V12.04H25.804C26.1 12.032 26.348 11.868 26.548 11.548C26.756 11.228 26.916 10.692 27.028 9.94C27.148 9.18 27.228 8.152 27.268 6.856L27.328 4.48H32.608V12.04H33.664V14.632H32.704V13H26.38V14.632H25.42ZM27.244 12.04H31.528V5.44H28.324L28.288 6.988C28.264 7.996 28.212 8.84 28.132 9.52C28.052 10.2 27.94 10.744 27.796 11.152C27.652 11.56 27.468 11.856 27.244 12.04ZM34.442 11.188C34.442 10.788 34.554 10.444 34.778 10.156C35.01 9.86 35.326 9.632 35.726 9.472C36.126 9.312 36.59 9.232 37.118 9.232C37.398 9.232 37.694 9.256 38.006 9.304C38.318 9.344 38.594 9.408 38.834 9.496V9.04C38.834 8.56 38.69 8.184 38.402 7.912C38.114 7.632 37.706 7.492 37.178 7.492C36.834 7.492 36.502 7.556 36.182 7.684C35.87 7.804 35.538 7.98 35.186 8.212L34.802 7.468C35.21 7.188 35.618 6.98 36.026 6.844C36.434 6.7 36.858 6.628 37.298 6.628C38.098 6.628 38.73 6.852 39.194 7.3C39.658 7.74 39.89 8.356 39.89 9.148V11.8C39.89 12.048 40.002 12.176 40.226 12.184V13C40.122 13.016 40.03 13.028 39.95 13.036C39.878 13.044 39.818 13.048 39.77 13.048C39.522 13.048 39.334 12.98 39.206 12.844C39.086 12.708 39.018 12.564 39.002 12.412L38.978 12.016C38.706 12.368 38.35 12.64 37.91 12.832C37.47 13.024 37.034 13.12 36.602 13.12C36.186 13.12 35.814 13.036 35.486 12.868C35.158 12.692 34.902 12.46 34.718 12.172C34.534 11.876 34.442 11.548 34.442 11.188ZM38.522 11.632C38.618 11.52 38.694 11.408 38.75 11.296C38.806 11.176 38.834 11.076 38.834 10.996V10.216C38.322 10.016 37.794 9.916 37.25 9.916C36.714 9.916 36.278 10.024 35.942 10.24C35.614 10.448 35.45 10.736 35.45 11.104C35.45 11.304 35.502 11.5 35.606 11.692C35.718 11.876 35.878 12.028 36.086 12.148C36.302 12.268 36.566 12.328 36.878 12.328C37.206 12.328 37.518 12.264 37.814 12.136C38.11 12 38.346 11.832 38.522 11.632ZM46.7506 13.12C46.1986 13.12 45.7106 13 45.2866 12.76C44.8626 12.52 44.5226 12.192 44.2666 11.776C44.0106 11.352 43.8546 10.872 43.7986 10.336H42.6346V13H41.5786V6.736H42.6346V9.412H43.7986C43.8626 8.86 44.0226 8.376 44.2786 7.96C44.5426 7.536 44.8866 7.208 45.3106 6.976C45.7346 6.744 46.2146 6.628 46.7506 6.628C47.3826 6.628 47.9266 6.776 48.3826 7.072C48.8386 7.36 49.1906 7.748 49.4386 8.236C49.6866 8.724 49.8106 9.272 49.8106 9.88C49.8106 10.504 49.6826 11.06 49.4266 11.548C49.1786 12.036 48.8226 12.42 48.3586 12.7C47.9026 12.98 47.3666 13.12 46.7506 13.12ZM46.7506 12.208C47.1426 12.208 47.4866 12.108 47.7826 11.908C48.0786 11.708 48.3106 11.436 48.4786 11.092C48.6466 10.74 48.7306 10.336 48.7306 9.88C48.7306 9.4 48.6426 8.988 48.4666 8.644C48.2986 8.292 48.0626 8.02 47.7586 7.828C47.4626 7.636 47.1266 7.54 46.7506 7.54C46.3746 7.54 46.0386 7.64 45.7426 7.84C45.4546 8.032 45.2306 8.304 45.0706 8.656C44.9106 9.008 44.8306 9.416 44.8306 9.88C44.8306 10.592 45.0106 11.16 45.3706 11.584C45.7306 12 46.1906 12.208 46.7506 12.208ZM56.0853 13.084C55.4773 13.084 54.9613 12.972 54.5373 12.748C54.1213 12.516 53.8013 12.196 53.5773 11.788L54.4413 11.404C54.5853 11.66 54.7893 11.86 55.0533 12.004C55.3253 12.148 55.6533 12.22 56.0373 12.22C56.4933 12.22 56.8533 12.12 57.1173 11.92C57.3813 11.72 57.5133 11.452 57.5133 11.116C57.5133 10.812 57.4053 10.568 57.1893 10.384C56.9813 10.192 56.6853 10.092 56.3013 10.084H55.6653V9.388H56.3373C56.5933 9.388 56.8013 9.3 56.9613 9.124C57.1293 8.94 57.2133 8.712 57.2133 8.44C57.2133 8.16 57.1133 7.936 56.9133 7.768C56.7133 7.592 56.4133 7.504 56.0133 7.504C55.3813 7.504 54.9293 7.76 54.6573 8.272L53.8533 7.84C54.0533 7.464 54.3413 7.172 54.7173 6.964C55.1013 6.748 55.5493 6.64 56.0613 6.64C56.6773 6.64 57.1813 6.788 57.5733 7.084C57.9653 7.372 58.1613 7.78 58.1613 8.308C58.1613 8.604 58.0893 8.88 57.9453 9.136C57.8093 9.384 57.6053 9.572 57.3333 9.7C57.7093 9.812 57.9973 10.008 58.1973 10.288C58.3973 10.56 58.4973 10.884 58.4973 11.26C58.4973 11.836 58.2693 12.284 57.8133 12.604C57.3653 12.924 56.7893 13.084 56.0853 13.084ZM59.7541 13V6.736H63.6181V7.672H60.8101V13H59.7541ZM67.4357 13.12C66.8117 13.12 66.2597 12.972 65.7797 12.676C65.3077 12.372 64.9397 11.976 64.6757 11.488C64.4117 10.992 64.2797 10.456 64.2797 9.88C64.2797 9.296 64.4117 8.76 64.6757 8.272C64.9477 7.776 65.3197 7.38 65.7917 7.084C66.2717 6.78 66.8197 6.628 67.4357 6.628C68.0597 6.628 68.6077 6.78 69.0797 7.084C69.5597 7.38 69.9317 7.776 70.1957 8.272C70.4677 8.76 70.6037 9.296 70.6037 9.88C70.6037 10.456 70.4677 10.992 70.1957 11.488C69.9317 11.976 69.5637 12.372 69.0917 12.676C68.6197 12.972 68.0677 13.12 67.4357 13.12ZM65.3597 9.892C65.3597 10.324 65.4517 10.716 65.6357 11.068C65.8277 11.42 66.0797 11.7 66.3917 11.908C66.7037 12.108 67.0517 12.208 67.4357 12.208C67.8197 12.208 68.1677 12.104 68.4797 11.896C68.7997 11.688 69.0517 11.408 69.2357 11.056C69.4277 10.696 69.5237 10.3 69.5237 9.868C69.5237 9.436 69.4277 9.044 69.2357 8.692C69.0517 8.34 68.7997 8.06 68.4797 7.852C68.1677 7.644 67.8197 7.54 67.4357 7.54C67.0517 7.54 66.7037 7.648 66.3917 7.864C66.0797 8.072 65.8277 8.352 65.6357 8.704C65.4517 9.056 65.3597 9.452 65.3597 9.892ZM71.1873 14.476V12.064H71.3193C71.5513 12.064 71.7593 11.968 71.9433 11.776C72.1353 11.576 72.2913 11.224 72.4113 10.72C72.5313 10.208 72.6033 9.484 72.6273 8.548L72.6873 6.736H76.9473V12.064H77.7993V14.476H76.8633V13H72.1233V14.476H71.1873ZM72.7952 12.064H75.8913V7.672H73.6233L73.5873 8.644C73.5553 9.668 73.4713 10.444 73.3353 10.972C73.2073 11.5 73.0273 11.864 72.7952 12.064ZM79.7531 15.628C79.4891 15.628 79.2091 15.548 78.9131 15.388L79.2731 14.668C79.4091 14.748 79.5451 14.788 79.6811 14.788C80.0731 14.788 80.4171 14.424 80.7131 13.696L81.0131 12.94L78.2651 6.736H79.3811L81.4931 11.932L83.4011 6.736H84.4451L81.5171 14.02C81.3011 14.556 81.0411 14.956 80.7371 15.22C80.4331 15.492 80.1051 15.628 79.7531 15.628ZM88.2072 13V6.736H89.2632V9.328H92.5272V6.736H93.5832V13H92.5272V10.264H89.2632V13H88.2072ZM94.7936 11.188C94.7936 10.788 94.9056 10.444 95.1296 10.156C95.3616 9.86 95.6776 9.632 96.0776 9.472C96.4776 9.312 96.9416 9.232 97.4696 9.232C97.7496 9.232 98.0456 9.256 98.3576 9.304C98.6696 9.344 98.9456 9.408 99.1856 9.496V9.04C99.1856 8.56 99.0416 8.184 98.7536 7.912C98.4656 7.632 98.0576 7.492 97.5296 7.492C97.1856 7.492 96.8536 7.556 96.5336 7.684C96.2216 7.804 95.8896 7.98 95.5376 8.212L95.1536 7.468C95.5616 7.188 95.9696 6.98 96.3776 6.844C96.7856 6.7 97.2096 6.628 97.6496 6.628C98.4496 6.628 99.0816 6.852 99.5456 7.3C100.01 7.74 100.242 8.356 100.242 9.148V11.8C100.242 12.048 100.354 12.176 100.578 12.184V13C100.474 13.016 100.382 13.028 100.302 13.036C100.23 13.044 100.17 13.048 100.122 13.048C99.8736 13.048 99.6856 12.98 99.5576 12.844C99.4376 12.708 99.3696 12.564 99.3536 12.412L99.3296 12.016C99.0576 12.368 98.7016 12.64 98.2616 12.832C97.8216 13.024 97.3856 13.12 96.9536 13.12C96.5376 13.12 96.1656 13.036 95.8376 12.868C95.5096 12.692 95.2536 12.46 95.0696 12.172C94.8856 11.876 94.7936 11.548 94.7936 11.188ZM98.8736 11.632C98.9696 11.52 99.0456 11.408 99.1016 11.296C99.1576 11.176 99.1856 11.076 99.1856 10.996V10.216C98.6736 10.016 98.1456 9.916 97.6016 9.916C97.0656 9.916 96.6296 10.024 96.2936 10.24C95.9656 10.448 95.8016 10.736 95.8016 11.104C95.8016 11.304 95.8536 11.5 95.9576 11.692C96.0696 11.876 96.2296 12.028 96.4376 12.148C96.6536 12.268 96.9176 12.328 97.2296 12.328C97.5576 12.328 97.8696 12.264 98.1656 12.136C98.4616 12 98.6976 11.832 98.8736 11.632ZM107.701 13.12C107.077 13.12 106.525 12.972 106.045 12.676C105.573 12.372 105.205 11.976 104.941 11.488C104.677 10.992 104.545 10.456 104.545 9.88C104.545 9.296 104.677 8.76 104.941 8.272C105.213 7.776 105.585 7.38 106.057 7.084C106.537 6.78 107.085 6.628 107.701 6.628C108.325 6.628 108.873 6.78 109.345 7.084C109.825 7.38 110.197 7.776 110.461 8.272C110.733 8.76 110.869 9.296 110.869 9.88C110.869 10.456 110.733 10.992 110.461 11.488C110.197 11.976 109.829 12.372 109.357 12.676C108.885 12.972 108.333 13.12 107.701 13.12ZM105.625 9.892C105.625 10.324 105.717 10.716 105.901 11.068C106.093 11.42 106.345 11.7 106.657 11.908C106.969 12.108 107.317 12.208 107.701 12.208C108.085 12.208 108.433 12.104 108.745 11.896C109.065 11.688 109.317 11.408 109.501 11.056C109.693 10.696 109.789 10.3 109.789 9.868C109.789 9.436 109.693 9.044 109.501 8.692C109.317 8.34 109.065 8.06 108.745 7.852C108.433 7.644 108.085 7.54 107.701 7.54C107.317 7.54 106.969 7.648 106.657 7.864C106.345 8.072 106.093 8.352 105.901 8.704C105.717 9.056 105.625 9.452 105.625 9.892ZM115.101 13.12C114.069 13.12 113.289 12.808 112.761 12.184C112.233 11.56 111.969 10.68 111.969 9.544C111.969 8.768 112.033 8.116 112.161 7.588C112.289 7.052 112.481 6.612 112.737 6.268C112.993 5.916 113.309 5.632 113.685 5.416C114.061 5.192 114.493 5.008 114.981 4.864L117.633 4.06L117.693 4.972L115.113 5.752C114.673 5.896 114.305 6.08 114.009 6.304C113.713 6.528 113.481 6.816 113.313 7.168C113.145 7.52 113.033 7.972 112.977 8.524C113.185 8.1 113.497 7.772 113.913 7.54C114.329 7.3 114.813 7.18 115.365 7.18C115.957 7.18 116.465 7.304 116.889 7.552C117.321 7.792 117.649 8.132 117.873 8.572C118.105 9.004 118.221 9.504 118.221 10.072C118.221 10.68 118.101 11.212 117.861 11.668C117.621 12.124 117.269 12.48 116.805 12.736C116.341 12.992 115.773 13.12 115.101 13.12ZM115.101 12.208C115.749 12.208 116.249 12.02 116.601 11.644C116.961 11.26 117.141 10.752 117.141 10.12C117.141 9.504 116.965 9.004 116.613 8.62C116.261 8.236 115.757 8.044 115.101 8.044C114.517 8.044 114.029 8.224 113.637 8.584C113.253 8.944 113.061 9.456 113.061 10.12C113.061 10.728 113.237 11.228 113.589 11.62C113.941 12.012 114.445 12.208 115.101 12.208ZM122.88 13.12C122.368 13.12 121.912 12.992 121.512 12.736C121.112 12.48 120.796 12.156 120.564 11.764V15.556H119.508V6.736H120.444V7.912C120.692 7.528 121.016 7.22 121.416 6.988C121.816 6.748 122.252 6.628 122.724 6.628C123.156 6.628 123.552 6.716 123.912 6.892C124.272 7.068 124.584 7.308 124.848 7.612C125.112 7.916 125.316 8.264 125.46 8.656C125.612 9.04 125.688 9.444 125.688 9.868C125.688 10.46 125.568 11.004 125.328 11.5C125.096 11.996 124.768 12.392 124.344 12.688C123.92 12.976 123.432 13.12 122.88 13.12ZM122.556 12.208C122.972 12.208 123.332 12.096 123.636 11.872C123.94 11.648 124.176 11.356 124.344 10.996C124.52 10.636 124.608 10.26 124.608 9.868C124.608 9.444 124.512 9.056 124.32 8.704C124.136 8.352 123.88 8.072 123.552 7.864C123.232 7.648 122.868 7.54 122.46 7.54C122.212 7.54 121.948 7.604 121.668 7.732C121.396 7.86 121.156 8.032 120.948 8.248C120.748 8.456 120.62 8.688 120.564 8.944V10.732C120.74 11.148 121.008 11.5 121.368 11.788C121.736 12.068 122.132 12.208 122.556 12.208ZM129.721 13.12C129.097 13.12 128.545 12.972 128.065 12.676C127.593 12.372 127.225 11.976 126.961 11.488C126.697 10.992 126.565 10.456 126.565 9.88C126.565 9.296 126.697 8.76 126.961 8.272C127.233 7.776 127.605 7.38 128.077 7.084C128.557 6.78 129.105 6.628 129.721 6.628C130.345 6.628 130.893 6.78 131.365 7.084C131.845 7.38 132.217 7.776 132.481 8.272C132.753 8.76 132.889 9.296 132.889 9.88C132.889 10.456 132.753 10.992 132.481 11.488C132.217 11.976 131.849 12.372 131.377 12.676C130.905 12.972 130.353 13.12 129.721 13.12ZM127.645 9.892C127.645 10.324 127.737 10.716 127.921 11.068C128.113 11.42 128.365 11.7 128.677 11.908C128.989 12.108 129.337 12.208 129.721 12.208C130.105 12.208 130.453 12.104 130.765 11.896C131.085 11.688 131.337 11.408 131.521 11.056C131.713 10.696 131.809 10.3 131.809 9.868C131.809 9.436 131.713 9.044 131.521 8.692C131.337 8.34 131.085 8.06 130.765 7.852C130.453 7.644 130.105 7.54 129.721 7.54C129.337 7.54 128.989 7.648 128.677 7.864C128.365 8.072 128.113 8.352 127.921 8.704C127.737 9.056 127.645 9.452 127.645 9.892ZM137.12 13.12C136.088 13.12 135.308 12.808 134.78 12.184C134.252 11.56 133.988 10.68 133.988 9.544C133.988 8.768 134.052 8.116 134.18 7.588C134.308 7.052 134.5 6.612 134.756 6.268C135.012 5.916 135.328 5.632 135.704 5.416C136.08 5.192 136.512 5.008 137 4.864L139.652 4.06L139.712 4.972L137.132 5.752C136.692 5.896 136.324 6.08 136.028 6.304C135.732 6.528 135.5 6.816 135.332 7.168C135.164 7.52 135.052 7.972 134.996 8.524C135.204 8.1 135.516 7.772 135.932 7.54C136.348 7.3 136.832 7.18 137.384 7.18C137.976 7.18 138.484 7.304 138.908 7.552C139.34 7.792 139.668 8.132 139.892 8.572C140.124 9.004 140.24 9.504 140.24 10.072C140.24 10.68 140.12 11.212 139.88 11.668C139.64 12.124 139.288 12.48 138.824 12.736C138.36 12.992 137.792 13.12 137.12 13.12ZM137.12 12.208C137.768 12.208 138.268 12.02 138.62 11.644C138.98 11.26 139.16 10.752 139.16 10.12C139.16 9.504 138.984 9.004 138.632 8.62C138.28 8.236 137.776 8.044 137.12 8.044C136.536 8.044 136.048 8.224 135.656 8.584C135.272 8.944 135.08 9.456 135.08 10.12C135.08 10.728 135.256 11.228 135.608 11.62C135.96 12.012 136.464 12.208 137.12 12.208ZM140.976 13.048V12.1C141.248 12.092 141.488 11.992 141.696 11.8C141.904 11.608 142.068 11.256 142.188 10.744C142.316 10.232 142.396 9.5 142.428 8.548L142.5 6.736H146.76V13H145.704V7.672H143.436L143.412 8.644C143.372 9.78 143.256 10.668 143.064 11.308C142.88 11.948 142.612 12.396 142.26 12.652C141.916 12.908 141.488 13.04 140.976 13.048ZM151.237 13.12C150.613 13.12 150.061 12.972 149.581 12.676C149.101 12.38 148.725 11.984 148.453 11.488C148.181 10.992 148.045 10.452 148.045 9.868C148.045 9.276 148.181 8.736 148.453 8.248C148.725 7.76 149.101 7.368 149.581 7.072C150.069 6.776 150.625 6.628 151.249 6.628C151.881 6.628 152.429 6.78 152.893 7.084C153.365 7.38 153.729 7.772 153.985 8.26C154.249 8.74 154.381 9.26 154.381 9.82C154.381 9.996 154.373 10.132 154.357 10.228H149.161C149.193 10.636 149.305 11 149.497 11.32C149.697 11.632 149.953 11.88 150.265 12.064C150.577 12.24 150.913 12.328 151.273 12.328C151.657 12.328 152.017 12.232 152.353 12.04C152.697 11.848 152.933 11.596 153.061 11.284L153.973 11.536C153.773 12 153.425 12.38 152.929 12.676C152.433 12.972 151.869 13.12 151.237 13.12ZM149.125 9.496H153.397C153.365 9.088 153.249 8.728 153.049 8.416C152.849 8.104 152.593 7.86 152.281 7.684C151.969 7.508 151.625 7.42 151.249 7.42C150.881 7.42 150.541 7.508 150.229 7.684C149.917 7.86 149.661 8.104 149.461 8.416C149.269 8.728 149.157 9.088 149.125 9.496ZM155.543 13V6.736H156.599V9.328H159.863V6.736H160.919V13H159.863V10.264H156.599V13H155.543ZM162.61 13V6.736H163.666V9.328H166.93V6.736H167.986V13H166.93V10.264H163.666V13H162.61ZM169.22 13L170.996 10.48C170.588 10.4 170.26 10.208 170.012 9.904C169.764 9.592 169.64 9.176 169.64 8.656C169.64 8.28 169.728 7.948 169.904 7.66C170.08 7.372 170.324 7.144 170.636 6.976C170.956 6.808 171.328 6.724 171.752 6.724H174.32V13H173.264V10.648H172.04L170.384 13H169.22ZM171.824 9.868H173.264V7.552H171.944C171.568 7.552 171.268 7.66 171.044 7.876C170.82 8.084 170.708 8.352 170.708 8.68C170.708 9.008 170.8 9.288 170.984 9.52C171.176 9.752 171.456 9.868 171.824 9.868ZM179.051 13V6.736H184.247V13H183.191V7.672H180.107V13H179.051ZM188.726 13.12C188.102 13.12 187.55 12.972 187.07 12.676C186.59 12.38 186.214 11.984 185.942 11.488C185.67 10.992 185.534 10.452 185.534 9.868C185.534 9.276 185.67 8.736 185.942 8.248C186.214 7.76 186.59 7.368 187.07 7.072C187.558 6.776 188.114 6.628 188.738 6.628C189.37 6.628 189.918 6.78 190.382 7.084C190.854 7.38 191.218 7.772 191.474 8.26C191.738 8.74 191.87 9.26 191.87 9.82C191.87 9.996 191.862 10.132 191.846 10.228H186.65C186.682 10.636 186.794 11 186.986 11.32C187.186 11.632 187.442 11.88 187.754 12.064C188.066 12.24 188.402 12.328 188.762 12.328C189.146 12.328 189.506 12.232 189.842 12.04C190.186 11.848 190.422 11.596 190.55 11.284L191.462 11.536C191.262 12 190.914 12.38 190.418 12.676C189.922 12.972 189.358 13.12 188.726 13.12ZM186.614 9.496H190.886C190.854 9.088 190.738 8.728 190.538 8.416C190.338 8.104 190.082 7.86 189.77 7.684C189.458 7.508 189.114 7.42 188.738 7.42C188.37 7.42 188.03 7.508 187.718 7.684C187.406 7.86 187.15 8.104 186.95 8.416C186.758 8.728 186.646 9.088 186.614 9.496ZM196.415 13.12C195.903 13.12 195.447 12.992 195.047 12.736C194.647 12.48 194.331 12.156 194.099 11.764V15.556H193.043V6.736H193.979V7.912C194.227 7.528 194.551 7.22 194.951 6.988C195.351 6.748 195.787 6.628 196.259 6.628C196.691 6.628 197.087 6.716 197.447 6.892C197.807 7.068 198.119 7.308 198.383 7.612C198.647 7.916 198.851 8.264 198.995 8.656C199.147 9.04 199.223 9.444 199.223 9.868C199.223 10.46 199.103 11.004 198.863 11.5C198.631 11.996 198.303 12.392 197.879 12.688C197.455 12.976 196.967 13.12 196.415 13.12ZM196.091 12.208C196.507 12.208 196.867 12.096 197.171 11.872C197.475 11.648 197.711 11.356 197.879 10.996C198.055 10.636 198.143 10.26 198.143 9.868C198.143 9.444 198.047 9.056 197.855 8.704C197.671 8.352 197.415 8.072 197.087 7.864C196.767 7.648 196.403 7.54 195.995 7.54C195.747 7.54 195.483 7.604 195.203 7.732C194.931 7.86 194.691 8.032 194.483 8.248C194.283 8.456 194.155 8.688 194.099 8.944V10.732C194.275 11.148 194.543 11.5 194.903 11.788C195.271 12.068 195.667 12.208 196.091 12.208ZM203.292 13.12C202.668 13.12 202.116 12.972 201.636 12.676C201.156 12.372 200.78 11.972 200.508 11.476C200.236 10.98 200.1 10.44 200.1 9.856C200.1 9.264 200.232 8.724 200.496 8.236C200.76 7.748 201.132 7.36 201.612 7.072C202.092 6.776 202.648 6.628 203.28 6.628C203.896 6.628 204.432 6.768 204.888 7.048C205.352 7.32 205.696 7.688 205.92 8.152L204.888 8.476C204.728 8.18 204.504 7.952 204.216 7.792C203.928 7.624 203.608 7.54 203.256 7.54C202.872 7.54 202.52 7.64 202.2 7.84C201.888 8.04 201.64 8.316 201.456 8.668C201.272 9.012 201.18 9.408 201.18 9.856C201.18 10.296 201.272 10.696 201.456 11.056C201.648 11.408 201.9 11.688 202.212 11.896C202.532 12.104 202.884 12.208 203.268 12.208C203.516 12.208 203.752 12.164 203.976 12.076C204.208 11.988 204.408 11.872 204.576 11.728C204.752 11.576 204.872 11.412 204.936 11.236L205.968 11.548C205.784 12.004 205.448 12.38 204.96 12.676C204.48 12.972 203.924 13.12 203.292 13.12ZM209.842 13.12C209.218 13.12 208.666 12.972 208.186 12.676C207.714 12.372 207.346 11.976 207.082 11.488C206.818 10.992 206.686 10.456 206.686 9.88C206.686 9.296 206.818 8.76 207.082 8.272C207.354 7.776 207.726 7.38 208.198 7.084C208.678 6.78 209.226 6.628 209.842 6.628C210.466 6.628 211.014 6.78 211.486 7.084C211.966 7.38 212.338 7.776 212.602 8.272C212.874 8.76 213.01 9.296 213.01 9.88C213.01 10.456 212.874 10.992 212.602 11.488C212.338 11.976 211.97 12.372 211.498 12.676C211.026 12.972 210.474 13.12 209.842 13.12ZM207.766 9.892C207.766 10.324 207.858 10.716 208.042 11.068C208.234 11.42 208.486 11.7 208.798 11.908C209.11 12.108 209.458 12.208 209.842 12.208C210.226 12.208 210.574 12.104 210.886 11.896C211.206 11.688 211.458 11.408 211.642 11.056C211.834 10.696 211.93 10.3 211.93 9.868C211.93 9.436 211.834 9.044 211.642 8.692C211.458 8.34 211.206 8.06 210.886 7.852C210.574 7.644 210.226 7.54 209.842 7.54C209.458 7.54 209.11 7.648 208.798 7.864C208.486 8.072 208.234 8.352 208.042 8.704C207.858 9.056 207.766 9.452 207.766 9.892ZM214.278 13V6.736H215.334V9.328H218.598V6.736H219.654V13H218.598V10.264H215.334V13H214.278ZM220.864 11.188C220.864 10.788 220.976 10.444 221.2 10.156C221.432 9.86 221.748 9.632 222.148 9.472C222.548 9.312 223.012 9.232 223.54 9.232C223.82 9.232 224.116 9.256 224.428 9.304C224.74 9.344 225.016 9.408 225.256 9.496V9.04C225.256 8.56 225.112 8.184 224.824 7.912C224.536 7.632 224.128 7.492 223.6 7.492C223.256 7.492 222.924 7.556 222.604 7.684C222.292 7.804 221.96 7.98 221.608 8.212L221.224 7.468C221.632 7.188 222.04 6.98 222.448 6.844C222.856 6.7 223.28 6.628 223.72 6.628C224.52 6.628 225.152 6.852 225.616 7.3C226.08 7.74 226.312 8.356 226.312 9.148V11.8C226.312 12.048 226.424 12.176 226.648 12.184V13C226.544 13.016 226.452 13.028 226.372 13.036C226.3 13.044 226.24 13.048 226.192 13.048C225.944 13.048 225.756 12.98 225.628 12.844C225.508 12.708 225.44 12.564 225.424 12.412L225.4 12.016C225.128 12.368 224.772 12.64 224.332 12.832C223.892 13.024 223.456 13.12 223.024 13.12C222.608 13.12 222.236 13.036 221.908 12.868C221.58 12.692 221.324 12.46 221.14 12.172C220.956 11.876 220.864 11.548 220.864 11.188ZM224.944 11.632C225.04 11.52 225.116 11.408 225.172 11.296C225.228 11.176 225.256 11.076 225.256 10.996V10.216C224.744 10.016 224.216 9.916 223.672 9.916C223.136 9.916 222.7 10.024 222.364 10.24C222.036 10.448 221.872 10.736 221.872 11.104C221.872 11.304 221.924 11.5 222.028 11.692C222.14 11.876 222.3 12.028 222.508 12.148C222.724 12.268 222.988 12.328 223.3 12.328C223.628 12.328 223.94 12.264 224.236 12.136C224.532 12 224.768 11.832 224.944 11.632ZM227.448 13.048V12.1C227.72 12.092 227.96 11.992 228.168 11.8C228.376 11.608 228.54 11.256 228.66 10.744C228.788 10.232 228.868 9.5 228.9 8.548L228.972 6.736H233.232V13H232.176V7.672H229.908L229.884 8.644C229.844 9.78 229.728 10.668 229.536 11.308C229.352 11.948 229.084 12.396 228.732 12.652C228.388 12.908 227.96 13.04 227.448 13.048ZM234.926 13V6.736H235.982V8.872H237.542C238.278 8.872 238.834 9.06 239.21 9.436C239.594 9.804 239.786 10.288 239.786 10.888C239.786 11.488 239.602 11.992 239.234 12.4C238.866 12.8 238.326 13 237.614 13H234.926ZM235.982 12.172H237.47C237.91 12.172 238.226 12.048 238.418 11.8C238.618 11.544 238.718 11.248 238.718 10.912C238.718 10.584 238.626 10.3 238.442 10.06C238.258 9.82 237.926 9.7 237.446 9.7H235.982V12.172ZM240.926 13V6.736H241.982V9.328H245.246V6.736H246.302V13H245.246V10.264H241.982V13H240.926ZM247.992 13V6.748H249.048V11.584L252.552 6.736H253.512V13H252.456V8.26L249 13H247.992ZM255.668 6.736L257.324 9.04L257.42 9.232L257.528 9.04L259.172 6.736H260.348L258.032 9.88L260.36 13H259.184L257.528 10.708L257.42 10.528L257.324 10.708L255.668 13H254.492L256.82 9.88L254.504 6.736H255.668ZM263.691 14.476V12.064H263.823C264.055 12.064 264.263 11.968 264.447 11.776C264.639 11.576 264.795 11.224 264.915 10.72C265.035 10.208 265.107 9.484 265.131 8.548L265.191 6.736H269.451V12.064H270.303V14.476H269.367V13H264.627V14.476H263.691ZM265.299 12.064H268.395V7.672H266.127L266.091 8.644C266.059 9.668 265.975 10.444 265.839 10.972C265.711 11.5 265.531 11.864 265.299 12.064ZM270.985 11.188C270.985 10.788 271.097 10.444 271.321 10.156C271.553 9.86 271.869 9.632 272.269 9.472C272.669 9.312 273.133 9.232 273.661 9.232C273.941 9.232 274.237 9.256 274.549 9.304C274.861 9.344 275.137 9.408 275.377 9.496V9.04C275.377 8.56 275.233 8.184 274.945 7.912C274.657 7.632 274.249 7.492 273.721 7.492C273.377 7.492 273.045 7.556 272.725 7.684C272.413 7.804 272.081 7.98 271.729 8.212L271.345 7.468C271.753 7.188 272.161 6.98 272.569 6.844C272.977 6.7 273.401 6.628 273.841 6.628C274.641 6.628 275.273 6.852 275.737 7.3C276.201 7.74 276.433 8.356 276.433 9.148V11.8C276.433 12.048 276.545 12.176 276.769 12.184V13C276.665 13.016 276.573 13.028 276.493 13.036C276.421 13.044 276.361 13.048 276.313 13.048C276.065 13.048 275.877 12.98 275.749 12.844C275.629 12.708 275.561 12.564 275.545 12.412L275.521 12.016C275.249 12.368 274.893 12.64 274.453 12.832C274.013 13.024 273.577 13.12 273.145 13.12C272.729 13.12 272.357 13.036 272.029 12.868C271.701 12.692 271.445 12.46 271.261 12.172C271.077 11.876 270.985 11.548 270.985 11.188ZM275.065 11.632C275.161 11.52 275.237 11.408 275.293 11.296C275.349 11.176 275.377 11.076 275.377 10.996V10.216C274.865 10.016 274.337 9.916 273.793 9.916C273.257 9.916 272.821 10.024 272.485 10.24C272.157 10.448 271.993 10.736 271.993 11.104C271.993 11.304 272.045 11.5 272.149 11.692C272.261 11.876 272.421 12.028 272.629 12.148C272.845 12.268 273.109 12.328 273.421 12.328C273.749 12.328 274.061 12.264 274.357 12.136C274.653 12 274.889 11.832 275.065 11.632ZM278.11 13V6.736H279.166V9.328H282.43V6.736H283.486V13H282.43V10.264H279.166V13H278.11ZM285.176 13V6.748H286.232V11.584L289.736 6.736H290.696V13H289.64V8.26L286.184 13H285.176ZM292.851 6.736L294.507 9.04L294.603 9.232L294.711 9.04L296.355 6.736H297.531L295.215 9.88L297.543 13H296.367L294.711 10.708L294.603 10.528L294.507 10.708L292.851 13H291.675L294.003 9.88L291.687 6.736H292.851Z" fill="white"/>
<rect x="1" y="1" width="13" height="13" stroke="white" stroke-width="2"/>
<rect x="5" y="5" width="5" height="5" fill="white"/>
</svg>
